# xmcd
#
# Track frame offsets:
#	150
#	19467
#	32090
#	47685
#	59140
#	68432
#	82095
#	99535
#	118340
#	132972
#	145187
#	156302
#	171617
#	184240
#
# Disc length: 2646 seconds
#
# Revision: 1
# Processed by: cddbd v1.5.2PL0 Copyright (c) Steve Scherf et al.
# Submitted via: EZCDAudioConverter 8.3.2.1
#
DISCID=d50a540e
DTITLE=Mats Rådberg and Rankarna - Det är inte lätt att va' ödmjuk
DYEAR=2008
DGENRE=Country
TTITLE0=Mats Rådberg and Rankarna - Det är inte lätt att vara ödmjuk (It's Hard 
TTITLE0=To Be Humble)
TTITLE1=Mats Rådberg and Rankarna - Det verkar kärlek (Sounds Like Love)
TTITLE2=Mats Rådberg and Rankarna (Duett Med Ann Kihlström) - Minns du va' vi br
TTITLE2=uka' göra (Blanket On The Ground)
TTITLE3=Mats Rådberg and Rankarna - Du behöver mej (I've Got Feelings Too)
TTITLE4=Mats Rådberg and Rankarna - Lady's Man
TTITLE5=Mats Rådberg and Rankarna - Kungsgatans neon (16th Avenue)
TTITLE6=Mats Rådberg and Rankarna - Nå'nting är på gång (Love Is On A Roll)
TTITLE7=Mats Rådberg and Rankarna - Jag såg henne hastigt (My First Taste Of Tex
TTITLE7=as)
TTITLE8=Mats Rådberg and Rankarna - It's Hard To Be A Cowboy (So Far From The We
TTITLE8=st)
TTITLE9=Mats Rådberg and Rankarna (Duett Med Ann Kihlström) - Du har bekymmer (S
TTITLE9=amma här) (You've Got Your Troubles)
TTITLE10=Mats Rådberg and Rankarna - Let's Hear It For The Working Man
TTITLE11=Mats Rådberg and Rankarna - Lys klart (Shine On)
TTITLE12=Mats Rådberg and Rankarna - Foohearted Memory
TTITLE13=Mats Rådberg and Rankarna - Tonight My Solitaire Turns Into Gin
EXTD=
EXTT0=
EXTT1=
EXTT2=
EXTT3=
EXTT4=
EXTT5=
EXTT6=
EXTT7=
EXTT8=
EXTT9=
EXTT10=
EXTT11=
EXTT12=
EXTT13=
PLAYORDER=
